<svg width="291" height="27" viewBox="0 0 291 27" fill="none" xmlns="http://www.w3.org/2000/svg">
<path d="M6.46737 20.6C5.67537 21.728 5.23137 22.628 5.13537 23.3C5.06337 23.972 5.27937 24.464 5.78337 24.776C6.31137 25.064 7.05537 25.232 8.01537 25.28L7.87137 26C6.95937 25.952 6.13137 25.928 5.38737 25.928C4.66737 25.904 3.98337 25.892 3.33537 25.892C2.78337 25.892 2.31537 25.904 1.93137 25.928C1.54737 25.928 1.16337 25.952 0.779374 26L0.959374 25.28C1.34337 25.184 1.72737 25.016 2.11137 24.776C2.49537 24.512 2.91537 24.14 3.37137 23.66C3.80337 23.156 4.30737 22.496 4.88337 21.68L20.0754 0.331998C20.2914 0.355999 20.5194 0.368 20.7594 0.368C21.0234 0.368 21.2634 0.355999 21.4794 0.331998L22.9194 22.976C22.9914 23.84 23.2074 24.44 23.5674 24.776C23.9514 25.088 24.3234 25.256 24.6834 25.28L24.5394 26C23.9634 25.952 23.2194 25.928 22.3074 25.928C21.4194 25.904 20.5674 25.892 19.7514 25.892C18.7434 25.892 17.7834 25.904 16.8714 25.928C15.9594 25.928 15.2394 25.952 14.7114 26L14.8554 25.28C16.0074 25.232 16.8234 25.028 17.3034 24.668C17.7834 24.284 17.9994 23.48 17.9514 22.256L17.0154 5.264L17.9514 4.4L6.46737 20.6ZM9.67137 15.632H20.1834L19.8954 16.352H9.02337L9.67137 15.632ZM28.6585 26V12.75H32.1085V15.325H32.1585C33.0835 13.825 34.5085 12.4 37.1585 12.4C37.6835 12.4 38.0835 12.45 38.5335 12.525V15.925C37.5835 15.625 36.9335 15.6 36.3335 15.6C34.5835 15.6 32.1085 16.525 32.1085 19.6V26H28.6585ZM41.3058 22.3V15.25H38.5558V12.75H41.3058V8.65H44.7558V12.75H48.3558V15.25H44.7558V21.3C44.7558 22.825 44.8308 23.65 46.0058 23.65C46.8558 23.65 47.6558 23.625 48.4808 23.6V26.1C47.5558 26.225 46.8808 26.3 45.8308 26.3C41.6308 26.3 41.3058 24.8 41.3058 22.3ZM66.0864 20.25H53.5864C53.6614 21.725 54.6614 24 58.0864 24C60.3614 24 61.3614 23.2 62.0364 22.1H65.7864C65.0364 23.575 63.2364 26.5 58.1864 26.5C52.2114 26.5 49.9864 23.025 49.9864 19.5C49.9864 15.075 53.2614 12.25 57.9614 12.25C63.8364 12.25 66.0864 15.875 66.0864 19.75V20.25ZM53.5864 18.05H62.4864C62.0614 15.4 59.7114 14.6 58.0114 14.6C56.4114 14.6 54.1614 15.35 53.5864 18.05ZM78.7534 26V18.1C78.7534 16.725 78.5784 15.05 75.5034 15.05C74.3034 15.05 71.9034 15.725 71.9034 18.625V26H68.4534V12.75H71.9034V14.75H71.9534C73.0784 13.325 74.8284 12.4 77.1784 12.4C78.7284 12.4 80.9284 12.675 81.8534 14.85C82.7034 13.625 84.4534 12.4 87.2284 12.4C89.3534 12.4 92.5034 13.15 92.5034 17.2V26H89.0534V18.1C89.0534 16.725 88.8784 15.05 85.8034 15.05C84.6034 15.05 82.2034 15.725 82.2034 18.625V26H78.7534ZM95.4089 26V12.75H98.8589V26H95.4089ZM95.4089 10.65V7.85H98.8589V10.65H95.4089ZM101.079 21.85H104.829C104.929 23.85 107.229 24.15 108.479 24.15C110.204 24.15 112.079 23.7 112.079 22.45C112.079 21.425 111.504 21.075 107.779 20.575C103.679 20.025 101.529 19.55 101.529 16.525C101.529 12.75 105.929 12.25 108.154 12.25C110.204 12.25 115.129 12.55 115.329 16.8H111.729C111.454 14.825 109.154 14.6 107.979 14.6C106.029 14.6 104.979 15.425 104.979 16.125C104.979 17.2 105.304 17.375 108.629 17.85C112.979 18.475 115.829 18.9 115.829 21.975C115.829 25.35 112.604 26.5 108.504 26.5C105.679 26.5 101.204 25.9 101.079 21.85ZM123.909 22.184C123.693 23.048 123.597 23.696 123.621 24.128C123.645 24.56 123.849 24.848 124.233 24.992C124.617 25.136 125.217 25.232 126.033 25.28L125.889 26C125.265 25.952 124.461 25.928 123.477 25.928C122.493 25.904 121.485 25.892 120.453 25.892C119.373 25.892 118.365 25.904 117.429 25.928C116.517 25.928 115.761 25.952 115.161 26L115.341 25.28C116.133 25.232 116.745 25.136 117.177 24.992C117.633 24.848 117.993 24.56 118.257 24.128C118.521 23.696 118.761 23.048 118.977 22.184L123.729 4.328C123.969 3.44 124.065 2.792 124.017 2.384C123.969 1.952 123.753 1.664 123.369 1.52C123.009 1.352 122.421 1.256 121.605 1.232L121.785 0.512C122.361 0.536 123.117 0.559999 124.053 0.583999C124.989 0.607999 125.997 0.619998 127.077 0.619998C128.109 0.619998 129.105 0.607999 130.065 0.583999C131.025 0.559999 131.853 0.536 132.549 0.512L132.369 1.232C131.553 1.256 130.917 1.352 130.461 1.52C130.005 1.664 129.645 1.952 129.381 2.384C129.141 2.792 128.901 3.44 128.661 4.328L123.909 22.184ZM131.395 26V12.75H134.845V14.75H134.895C136.02 13.325 137.77 12.4 140.12 12.4C142.97 12.4 145.745 13.425 145.745 17V26H142.295V18.1C142.295 16.675 141.82 15.05 138.97 15.05C137.17 15.05 134.845 16.05 134.845 18.875V26H131.395ZM148.533 26V7.85H151.983V18.05L158.108 12.75H162.983L156.858 17.75L163.508 26H158.858L154.158 19.95L151.983 21.725V26H148.533ZM172.23 17.792C172.23 15.248 174.486 14.256 177.27 14.256C179.03 14.256 182.55 14.576 182.854 17.888H180.262C180.182 17.008 179.382 16.048 177.382 16.048C175.782 16.048 174.726 16.544 174.726 17.616C174.726 20.304 183.238 17.728 183.238 22.608C183.238 25.552 180.182 26.32 177.75 26.32C173.638 26.32 171.99 24.704 171.958 22.304H174.55C174.614 23.808 175.862 24.528 177.83 24.528C179.286 24.528 180.646 24.096 180.646 22.848C180.646 20.016 172.23 22.48 172.23 17.792ZM194.217 26V16.368H189.929V14.576H200.905V16.368H196.617V26H194.217ZM208.37 21.088V14.576H210.77V21.024C210.77 22.608 210.834 24.528 213.954 24.528C217.09 24.528 217.154 22.608 217.154 21.024V14.576H219.554V21.088C219.554 22.976 219.49 26.32 213.954 26.32C208.434 26.32 208.37 22.976 208.37 21.088ZM230.594 16.368V24.208H233.97C235.698 24.208 237.538 23.648 237.538 20.304C237.538 16.592 235.186 16.368 233.842 16.368H230.594ZM228.194 26V14.576H234.354C238.834 14.576 239.938 17.136 239.938 20.4C239.938 22.864 238.818 26 234.93 26H228.194ZM248.219 26V14.576H250.619V26H248.219ZM265.433 26.32C260.601 26.32 258.713 23.504 258.713 20.288C258.713 17.072 260.601 14.256 265.433 14.256C270.265 14.256 272.153 17.072 272.153 20.288C272.153 23.504 270.265 26.32 265.433 26.32ZM265.433 24.528C268.121 24.528 269.657 22.8 269.657 20.288C269.657 17.776 268.121 16.048 265.433 16.048C262.745 16.048 261.209 17.776 261.209 20.288C261.209 22.8 262.745 24.528 265.433 24.528ZM279.645 17.792C279.645 15.248 281.901 14.256 284.685 14.256C286.445 14.256 289.965 14.576 290.269 17.888H287.677C287.597 17.008 286.797 16.048 284.797 16.048C283.197 16.048 282.141 16.544 282.141 17.616C282.141 20.304 290.653 17.728 290.653 22.608C290.653 25.552 287.597 26.32 285.165 26.32C281.053 26.32 279.405 24.704 279.373 22.304H281.965C282.029 23.808 283.277 24.528 285.245 24.528C286.701 24.528 288.061 24.096 288.061 22.848C288.061 20.016 279.645 22.48 279.645 17.792Z" fill="white"/>
</svg>
