<svg width="1080" height="1009" viewBox="0 0 1080 1009" fill="none" xmlns="http://www.w3.org/2000/svg">
<g style="mix-blend-mode:exclusion" opacity="0.85" filter="url(#filter0_f_4032_670)">
<path d="M377.704 69.8105C73.1156 243.845 211.47 -111.339 426.739 -199.205L1623.76 245.685C1612.02 405.213 2001.35 982.764 1450.82 755.132C1319.31 700.756 1412 596.613 1169 580.056C926 563.5 1051.98 209.882 900.293 286.861C701 388 682.293 -104.224 377.704 69.8105Z" fill="url(#paint0_linear_4032_670)"/>
<path d="M377.704 69.8105C73.1156 243.845 211.47 -111.339 426.739 -199.205L1623.76 245.685C1612.02 405.213 2001.35 982.764 1450.82 755.132C1319.31 700.756 1412 596.613 1169 580.056C926 563.5 1051.98 209.882 900.293 286.861C701 388 682.293 -104.224 377.704 69.8105Z" stroke="black"/>
</g>
<defs>
<filter id="filter0_f_4032_670" x="0.687561" y="-399.741" width="1946.28" height="1407.81" filterUnits="userSpaceOnUse" color-interpolation-filters="sRGB">
<feFlood flood-opacity="0" result="BackgroundImageFix"/>
<feBlend mode="normal" in="SourceGraphic" in2="BackgroundImageFix" result="shape"/>
<feGaussianBlur stdDeviation="100" result="effect1_foregroundBlur_4032_670"/>
</filter>
<linearGradient id="paint0_linear_4032_670" x1="1736.94" y1="881.719" x2="1541.29" y2="-426.537" gradientUnits="userSpaceOnUse">
<stop offset="0.510844" stop-color="#9BF8F4"/>
<stop offset="0.751" stop-color="#6F7BF7"/>
<stop offset="0.866" stop-color="#9403FD"/>
</linearGradient>
</defs>
</svg>
