<svg width="198" height="48" viewBox="0 0 198 48" fill="none" xmlns="http://www.w3.org/2000/svg">
<path d="M17.1495 7.656C16.0695 7.656 15.0135 7.992 13.9815 8.664C12.9495 9.312 11.9895 10.224 11.1015 11.4C10.2375 12.552 9.46949 13.884 8.79749 15.396C8.12549 16.884 7.59749 18.48 7.21349 20.184C6.82949 21.888 6.63749 23.604 6.63749 25.332C6.63749 27.684 7.06949 29.532 7.93349 30.876C8.79749 32.196 9.90149 32.856 11.2455 32.856C12.3255 32.856 13.3815 32.532 14.4135 31.884C15.4455 31.212 16.3935 30.3 17.2575 29.148C18.1455 27.972 18.9255 26.64 19.5975 25.152C20.2695 23.64 20.7975 22.032 21.1815 20.328C21.5655 18.624 21.7575 16.908 21.7575 15.18C21.7575 12.828 21.3255 10.992 20.4615 9.672C19.5975 8.328 18.4935 7.656 17.1495 7.656ZM2.02949 24.864C2.02949 23.28 2.25749 21.648 2.71349 19.968C3.19349 18.288 3.87749 16.68 4.76549 15.144C5.65349 13.608 6.73349 12.228 8.00549 11.004C9.27749 9.78 10.7055 8.808 12.2895 8.088C13.8735 7.368 15.6015 7.008 17.4735 7.008C20.2575 7.008 22.4415 7.764 24.0255 9.276C25.6095 10.764 26.4015 12.9 26.4015 15.684C26.4015 17.268 26.1615 18.9 25.6815 20.58C25.2015 22.236 24.5175 23.832 23.6295 25.368C22.7415 26.904 21.6615 28.284 20.3895 29.508C19.1175 30.732 17.6775 31.704 16.0695 32.424C14.4855 33.144 12.7695 33.504 10.9215 33.504C8.13749 33.504 5.95349 32.76 4.36949 31.272C2.80949 29.76 2.02949 27.624 2.02949 24.864ZM28.4537 33V19.75H31.9037V21.75H31.9537C33.0787 20.325 34.8287 19.4 37.1787 19.4C40.0287 19.4 42.8037 20.425 42.8037 24V33H39.3537V25.1C39.3537 23.675 38.8787 22.05 36.0287 22.05C34.2287 22.05 31.9037 23.05 31.9037 25.875V33H28.4537ZM61.2674 27.25H48.7674C48.8424 28.725 49.8424 31 53.2674 31C55.5424 31 56.5424 30.2 57.2174 29.1H60.9674C60.2174 30.575 58.4174 33.5 53.3674 33.5C47.3924 33.5 45.1674 30.025 45.1674 26.5C45.1674 22.075 48.4424 19.25 53.1424 19.25C59.0174 19.25 61.2674 22.875 61.2674 26.75V27.25ZM48.7674 25.05H57.6674C57.2424 22.4 54.8924 21.6 53.1924 21.6C51.5924 21.6 49.3424 22.35 48.7674 25.05ZM71.3844 22.05C68.1594 22.05 66.9344 24.225 66.9344 26.425C66.9344 28.675 68.1594 30.85 71.3844 30.85C74.6344 30.85 75.8594 28.675 75.8594 26.425C75.8594 24.225 74.6344 22.05 71.3844 22.05ZM63.6344 33V14.85H67.0844V21.65H67.1344C68.1594 20.05 70.1344 19.4 72.2094 19.4C77.2594 19.4 79.4594 23.075 79.4594 26.425C79.4594 29.825 77.2594 33.5 72.2094 33.5C69.4594 33.5 67.3844 31.975 67.1344 31.175H67.0844V33H63.6344ZM86.2014 32.775L80.0264 19.75H83.7764L88.0264 29.225L92.1764 19.75H95.8514L88.6264 35.35C87.5764 37.625 86.7264 38.05 83.8514 38.05C83.2764 38.05 82.3764 38.025 81.7014 38V35.35C81.9764 35.375 82.6764 35.4 83.4264 35.4C84.3514 35.4 85.0264 35.2 85.4264 34.375L86.2014 32.775ZM101.32 20.544L101.572 19.824H114.28L113.992 20.544H101.32ZM111.688 25.548C111.688 25.548 111.712 25.428 111.76 25.188C111.808 24.948 111.832 24.828 111.832 24.828C112.504 24.924 113.152 25.128 113.776 25.44C114.4 25.752 114.916 26.196 115.324 26.772C115.732 27.324 115.936 28.068 115.936 29.004C115.936 30.3 115.516 31.38 114.676 32.244C113.86 33.084 112.732 33.504 111.292 33.504C110.356 33.504 109.54 33.324 108.844 32.964C108.148 32.604 107.488 32.184 106.864 31.704C106.24 31.2 105.592 30.768 104.92 30.408C104.248 30.048 103.456 29.868 102.544 29.868C101.632 29.868 100.816 30 100.096 30.264C99.3996 30.528 98.6076 30.864 97.7196 31.272C97.1916 32.04 96.6156 32.628 95.9916 33.036C95.3676 33.444 94.8876 33.492 94.5516 33.18C94.2636 32.916 94.2876 32.52 94.6236 31.992C94.9596 31.464 95.7636 30.96 97.0356 30.48L117.916 9.96C116.86 10.68 115.768 11.256 114.64 11.688C113.512 12.12 112.408 12.336 111.328 12.336C110.536 12.336 109.816 12.24 109.168 12.048C108.544 11.856 107.944 11.64 107.368 11.4C106.816 11.16 106.24 10.944 105.64 10.752C105.064 10.56 104.416 10.464 103.696 10.464C102.976 10.464 102.436 10.644 102.076 11.004C101.716 11.364 101.536 11.868 101.536 12.516C101.536 13.164 101.752 13.692 102.184 14.1C102.64 14.508 103.288 14.796 104.128 14.964C104.128 14.964 104.104 15.084 104.056 15.324C104.008 15.564 103.984 15.684 103.984 15.684C103.336 15.564 102.688 15.36 102.04 15.072C101.416 14.76 100.9 14.316 100.492 13.74C100.084 13.164 99.8796 12.42 99.8796 11.508C99.8796 10.212 100.288 9.144 101.104 8.304C101.944 7.44 103.084 7.008 104.524 7.008C105.46 7.008 106.276 7.188 106.972 7.548C107.668 7.908 108.328 8.34 108.952 8.844C109.576 9.324 110.224 9.744 110.896 10.104C111.568 10.464 112.36 10.644 113.272 10.644C114.184 10.644 115 10.512 115.72 10.248C116.44 9.984 117.232 9.648 118.096 9.24C118.648 8.472 119.224 7.884 119.824 7.476C120.424 7.068 120.904 7.02 121.264 7.332C121.552 7.572 121.528 7.968 121.192 8.52C120.856 9.048 120.052 9.552 118.78 10.032L97.8996 30.552C98.9556 29.832 100.048 29.256 101.176 28.824C102.304 28.392 103.408 28.176 104.488 28.176C105.304 28.176 106.024 28.272 106.648 28.464C107.272 28.656 107.86 28.872 108.412 29.112C108.988 29.352 109.576 29.568 110.176 29.76C110.776 29.952 111.424 30.048 112.12 30.048C112.84 30.048 113.38 29.868 113.74 29.508C114.1 29.148 114.28 28.644 114.28 27.996C114.28 27.348 114.064 26.82 113.632 26.412C113.2 26.004 112.552 25.716 111.688 25.548ZM136.189 27.25H123.689C123.764 28.725 124.764 31 128.189 31C130.464 31 131.464 30.2 132.139 29.1H135.889C135.139 30.575 133.339 33.5 128.289 33.5C122.314 33.5 120.089 30.025 120.089 26.5C120.089 22.075 123.364 19.25 128.064 19.25C133.939 19.25 136.189 22.875 136.189 26.75V27.25ZM123.689 25.05H132.589C132.164 22.4 129.814 21.6 128.114 21.6C126.514 21.6 124.264 22.35 123.689 25.05ZM138.556 33V19.75H142.006V22.325H142.056C142.981 20.825 144.406 19.4 147.056 19.4C147.581 19.4 147.981 19.45 148.431 19.525V22.925C147.481 22.625 146.831 22.6 146.231 22.6C144.481 22.6 142.006 23.525 142.006 26.6V33H138.556ZM153.154 26.375C153.154 28.675 154.404 30.85 157.754 30.85C161.104 30.85 162.354 28.675 162.354 26.375C162.354 24.075 161.104 21.9 157.754 21.9C154.404 21.9 153.154 24.075 153.154 26.375ZM149.554 26.375C149.554 22.725 151.829 19.25 157.754 19.25C163.679 19.25 165.954 22.725 165.954 26.375C165.954 30.025 163.679 33.5 157.754 33.5C151.829 33.5 149.554 30.025 149.554 26.375Z" fill="white"/>
<path d="M23.948 47V40.378H21V39.146H28.546V40.378H25.598V47H23.948ZM32.314 47V39.146H33.964V42.204H38.837V39.146H40.487V47H38.837V43.436H33.964V47H32.314ZM45.0594 47V39.146H51.8794V40.378H46.7094V42.358H51.6704V43.59H46.7094V45.768H51.9674V47H45.0594ZM64.6699 40.378V45.768H66.9909C68.1789 45.768 69.4439 45.383 69.4439 43.084C69.4439 40.532 67.8269 40.378 66.9029 40.378H64.6699ZM63.0199 47V39.146H67.2549C70.3349 39.146 71.0939 40.906 71.0939 43.15C71.0939 44.844 70.3239 47 67.6509 47H63.0199ZM75.3571 47V39.146H82.1771V40.378H77.0071V42.358H81.9681V43.59H77.0071V45.768H82.2651V47H75.3571ZM86.0624 41.357C86.0624 39.608 87.6134 38.926 89.5274 38.926C90.7374 38.926 93.1574 39.146 93.3664 41.423H91.5844C91.5294 40.818 90.9794 40.158 89.6044 40.158C88.5044 40.158 87.7784 40.499 87.7784 41.236C87.7784 43.084 93.6304 41.313 93.6304 44.668C93.6304 46.692 91.5294 47.22 89.8574 47.22C87.0304 47.22 85.8974 46.109 85.8754 44.459H87.6574C87.7014 45.493 88.5594 45.988 89.9124 45.988C90.9134 45.988 91.8484 45.691 91.8484 44.833C91.8484 42.886 86.0624 44.58 86.0624 41.357ZM97.6037 47V39.146H99.2537V47H97.6037ZM112.2 42.688V47H111.232L111.001 45.977C110.363 46.747 109.241 47.22 108.009 47.22C104.687 47.22 103.389 45.284 103.389 43.073C103.389 40.862 104.764 38.926 107.965 38.926C110.352 38.926 111.881 40.136 112.057 41.676H110.275C109.978 40.609 108.988 40.158 107.921 40.158C105.886 40.158 105.105 41.401 105.105 43.128C105.105 45.218 106.447 45.988 107.833 45.988C109.516 45.988 110.286 45.218 110.55 43.92H108.328V42.688H112.2ZM116.778 47V39.146H118.67L123.345 45.042H123.367V39.146H124.951V47H123.092L118.384 41.104H118.362V47H116.778ZM135.943 41.357C135.943 39.608 137.494 38.926 139.408 38.926C140.618 38.926 143.038 39.146 143.247 41.423H141.465C141.41 40.818 140.86 40.158 139.485 40.158C138.385 40.158 137.659 40.499 137.659 41.236C137.659 43.084 143.511 41.313 143.511 44.668C143.511 46.692 141.41 47.22 139.738 47.22C136.911 47.22 135.778 46.109 135.756 44.459H137.538C137.582 45.493 138.44 45.988 139.793 45.988C140.794 45.988 141.729 45.691 141.729 44.833C141.729 42.886 135.943 44.58 135.943 41.357ZM149.629 47V40.378H146.681V39.146H154.227V40.378H151.279V47H149.629ZM157.929 43.623V39.146H159.579V43.579C159.579 44.668 159.623 45.988 161.768 45.988C163.924 45.988 163.968 44.668 163.968 43.579V39.146H165.618V43.623C165.618 44.921 165.574 47.22 161.768 47.22C157.973 47.22 157.929 44.921 157.929 43.623ZM171.778 40.378V45.768H174.099C175.287 45.768 176.552 45.383 176.552 43.084C176.552 40.532 174.935 40.378 174.011 40.378H171.778ZM170.128 47V39.146H174.363C177.443 39.146 178.202 40.906 178.202 43.15C178.202 44.844 177.432 47 174.759 47H170.128ZM182.465 47V39.146H184.115V47H182.465ZM192.87 47.22C189.548 47.22 188.25 45.284 188.25 43.073C188.25 40.862 189.548 38.926 192.87 38.926C196.192 38.926 197.49 40.862 197.49 43.073C197.49 45.284 196.192 47.22 192.87 47.22ZM192.87 45.988C194.718 45.988 195.774 44.8 195.774 43.073C195.774 41.346 194.718 40.158 192.87 40.158C191.022 40.158 189.966 41.346 189.966 43.073C189.966 44.8 191.022 45.988 192.87 45.988Z" fill="white"/>
</svg>
