<svg width="164" height="33" viewBox="0 0 164 33" fill="none" xmlns="http://www.w3.org/2000/svg">
<path d="M15.1495 1.656C14.0695 1.656 13.0135 1.992 11.9815 2.664C10.9495 3.312 9.98949 4.224 9.10149 5.4C8.23749 6.552 7.46949 7.884 6.79749 9.396C6.12549 10.884 5.59749 12.48 5.21349 14.184C4.82949 15.888 4.63749 17.604 4.63749 19.332C4.63749 21.684 5.06949 23.532 5.93349 24.876C6.79749 26.196 7.90149 26.856 9.24549 26.856C10.3255 26.856 11.3815 26.532 12.4135 25.884C13.4455 25.212 14.3935 24.3 15.2575 23.148C16.1455 21.972 16.9255 20.64 17.5975 19.152C18.2695 17.64 18.7975 16.032 19.1815 14.328C19.5655 12.624 19.7575 10.908 19.7575 9.18C19.7575 6.828 19.3255 4.992 18.4615 3.672C17.5975 2.328 16.4935 1.656 15.1495 1.656ZM0.0294922 18.864C0.0294922 17.28 0.257492 15.648 0.713492 13.968C1.19349 12.288 1.87749 10.68 2.76549 9.144C3.65349 7.608 4.73349 6.228 6.00549 5.004C7.27749 3.78 8.70549 2.808 10.2895 2.088C11.8735 1.368 13.6015 1.008 15.4735 1.008C18.2575 1.008 20.4415 1.764 22.0255 3.276C23.6095 4.764 24.4015 6.9 24.4015 9.684C24.4015 11.268 24.1615 12.9 23.6815 14.58C23.2015 16.236 22.5175 17.832 21.6295 19.368C20.7415 20.904 19.6615 22.284 18.3895 23.508C17.1175 24.732 15.6775 25.704 14.0695 26.424C12.4855 27.144 10.7695 27.504 8.92149 27.504C6.13749 27.504 3.95349 26.76 2.36949 25.272C0.809492 23.76 0.0294922 21.624 0.0294922 18.864ZM26.4537 27V13.75H29.9037V15.75H29.9537C31.0787 14.325 32.8287 13.4 35.1787 13.4C38.0287 13.4 40.8037 14.425 40.8037 18V27H37.3537V19.1C37.3537 17.675 36.8787 16.05 34.0287 16.05C32.2287 16.05 29.9037 17.05 29.9037 19.875V27H26.4537ZM59.2674 21.25H46.7674C46.8424 22.725 47.8424 25 51.2674 25C53.5424 25 54.5424 24.2 55.2174 23.1H58.9674C58.2174 24.575 56.4174 27.5 51.3674 27.5C45.3924 27.5 43.1674 24.025 43.1674 20.5C43.1674 16.075 46.4424 13.25 51.1424 13.25C57.0174 13.25 59.2674 16.875 59.2674 20.75V21.25ZM46.7674 19.05H55.6674C55.2424 16.4 52.8924 15.6 51.1924 15.6C49.5924 15.6 47.3424 16.35 46.7674 19.05ZM69.3844 16.05C66.1594 16.05 64.9344 18.225 64.9344 20.425C64.9344 22.675 66.1594 24.85 69.3844 24.85C72.6344 24.85 73.8594 22.675 73.8594 20.425C73.8594 18.225 72.6344 16.05 69.3844 16.05ZM61.6344 27V8.85H65.0844V15.65H65.1344C66.1594 14.05 68.1344 13.4 70.2094 13.4C75.2594 13.4 77.4594 17.075 77.4594 20.425C77.4594 23.825 75.2594 27.5 70.2094 27.5C67.4594 27.5 65.3844 25.975 65.1344 25.175H65.0844V27H61.6344ZM84.2014 26.775L78.0264 13.75H81.7764L86.0264 23.225L90.1764 13.75H93.8514L86.6264 29.35C85.5764 31.625 84.7264 32.05 81.8514 32.05C81.2764 32.05 80.3764 32.025 79.7014 32V29.35C79.9764 29.375 80.6764 29.4 81.4264 29.4C82.3514 29.4 83.0264 29.2 83.4264 28.375L84.2014 26.775ZM99.3196 14.544L99.5716 13.824H112.28L111.992 14.544H99.3196ZM109.688 19.548C109.688 19.548 109.712 19.428 109.76 19.188C109.808 18.948 109.832 18.828 109.832 18.828C110.504 18.924 111.152 19.128 111.776 19.44C112.4 19.752 112.916 20.196 113.324 20.772C113.732 21.324 113.936 22.068 113.936 23.004C113.936 24.3 113.516 25.38 112.676 26.244C111.86 27.084 110.732 27.504 109.292 27.504C108.356 27.504 107.54 27.324 106.844 26.964C106.148 26.604 105.488 26.184 104.864 25.704C104.24 25.2 103.592 24.768 102.92 24.408C102.248 24.048 101.456 23.868 100.544 23.868C99.6316 23.868 98.8156 24 98.0956 24.264C97.3996 24.528 96.6076 24.864 95.7196 25.272C95.1916 26.04 94.6156 26.628 93.9916 27.036C93.3676 27.444 92.8876 27.492 92.5516 27.18C92.2636 26.916 92.2876 26.52 92.6236 25.992C92.9596 25.464 93.7636 24.96 95.0356 24.48L115.916 3.96C114.86 4.68 113.768 5.256 112.64 5.688C111.512 6.12 110.408 6.336 109.328 6.336C108.536 6.336 107.816 6.24 107.168 6.048C106.544 5.856 105.944 5.64 105.368 5.4C104.816 5.16 104.24 4.944 103.64 4.752C103.064 4.56 102.416 4.464 101.696 4.464C100.976 4.464 100.436 4.644 100.076 5.004C99.7156 5.364 99.5356 5.868 99.5356 6.516C99.5356 7.164 99.7516 7.692 100.184 8.1C100.64 8.508 101.288 8.796 102.128 8.964C102.128 8.964 102.104 9.084 102.056 9.324C102.008 9.564 101.984 9.684 101.984 9.684C101.336 9.564 100.688 9.36 100.04 9.072C99.4156 8.76 98.8996 8.316 98.4916 7.74C98.0836 7.164 97.8796 6.42 97.8796 5.508C97.8796 4.212 98.2876 3.144 99.1036 2.304C99.9436 1.44 101.084 1.008 102.524 1.008C103.46 1.008 104.276 1.188 104.972 1.548C105.668 1.908 106.328 2.34 106.952 2.844C107.576 3.324 108.224 3.744 108.896 4.104C109.568 4.464 110.36 4.644 111.272 4.644C112.184 4.644 113 4.512 113.72 4.248C114.44 3.984 115.232 3.648 116.096 3.24C116.648 2.472 117.224 1.884 117.824 1.476C118.424 1.068 118.904 1.02 119.264 1.332C119.552 1.572 119.528 1.968 119.192 2.52C118.856 3.048 118.052 3.552 116.78 4.032L95.8996 24.552C96.9556 23.832 98.0476 23.256 99.1756 22.824C100.304 22.392 101.408 22.176 102.488 22.176C103.304 22.176 104.024 22.272 104.648 22.464C105.272 22.656 105.86 22.872 106.412 23.112C106.988 23.352 107.576 23.568 108.176 23.76C108.776 23.952 109.424 24.048 110.12 24.048C110.84 24.048 111.38 23.868 111.74 23.508C112.1 23.148 112.28 22.644 112.28 21.996C112.28 21.348 112.064 20.82 111.632 20.412C111.2 20.004 110.552 19.716 109.688 19.548ZM134.189 21.25H121.689C121.764 22.725 122.764 25 126.189 25C128.464 25 129.464 24.2 130.139 23.1H133.889C133.139 24.575 131.339 27.5 126.289 27.5C120.314 27.5 118.089 24.025 118.089 20.5C118.089 16.075 121.364 13.25 126.064 13.25C131.939 13.25 134.189 16.875 134.189 20.75V21.25ZM121.689 19.05H130.589C130.164 16.4 127.814 15.6 126.114 15.6C124.514 15.6 122.264 16.35 121.689 19.05ZM136.556 27V13.75H140.006V16.325H140.056C140.981 14.825 142.406 13.4 145.056 13.4C145.581 13.4 145.981 13.45 146.431 13.525V16.925C145.481 16.625 144.831 16.6 144.231 16.6C142.481 16.6 140.006 17.525 140.006 20.6V27H136.556ZM151.154 20.375C151.154 22.675 152.404 24.85 155.754 24.85C159.104 24.85 160.354 22.675 160.354 20.375C160.354 18.075 159.104 15.9 155.754 15.9C152.404 15.9 151.154 18.075 151.154 20.375ZM147.554 20.375C147.554 16.725 149.829 13.25 155.754 13.25C161.679 13.25 163.954 16.725 163.954 20.375C163.954 24.025 161.679 27.5 155.754 27.5C149.829 27.5 147.554 24.025 147.554 20.375Z" fill="black"/>
</svg>
