<svg width="49" height="49" viewBox="0 0 49 49" fill="none" xmlns="http://www.w3.org/2000/svg">
<circle cx="24.4297" cy="24.0791" r="24" fill="#F5F8FF"/>
<rect width="24" height="24" transform="translate(12.4297 12.0791)" fill="#F5F8FF"/>
<path d="M24.4297 30.0791C21.1203 30.0791 18.4297 27.39 18.4297 24.0814C18.4297 20.7682 21.1203 18.0791 24.4297 18.0791C27.7391 18.0791 30.4297 20.7682 30.4297 24.0768C30.4297 27.3853 27.7391 30.0791 24.4297 30.0791ZM29.4875 24.898C29.3141 24.8417 27.9031 24.424 26.2953 24.6775C26.9656 26.5171 27.2375 28.0189 27.2891 28.3286C28.4422 27.5543 29.2625 26.3247 29.4875 24.898ZM26.4313 28.8026C26.3563 28.3521 26.0563 26.7846 25.3391 24.9168C25.3297 24.9215 25.3156 24.9262 25.3063 24.9262C22.4141 25.9352 21.3781 27.9391 21.2844 28.1268C22.1516 28.8026 23.2438 29.2062 24.4297 29.2062C25.1375 29.2109 25.8172 29.0654 26.4313 28.8026ZM20.6234 27.512C20.7406 27.3149 22.1469 24.9872 24.7906 24.1284C24.8563 24.1049 24.9266 24.0861 24.9922 24.0674C24.8656 23.7764 24.725 23.4854 24.575 23.1992C22.0156 23.9641 19.5312 23.9313 19.3062 23.9266C19.3062 23.9782 19.3016 24.0298 19.3016 24.0814C19.3062 25.4002 19.8031 26.6016 20.6234 27.512ZM19.4141 23.0349C19.6437 23.0396 21.7531 23.049 24.1531 22.4107C23.3047 20.8996 22.3859 19.6325 22.2547 19.4495C20.8156 20.1253 19.7469 21.4487 19.4141 23.0349ZM23.2297 19.1022C23.3703 19.2899 24.3031 20.557 25.1422 22.101C26.9656 21.4158 27.7344 20.3834 27.8281 20.252C26.9235 19.4495 25.7328 18.9614 24.4297 18.9614C24.0172 18.9614 23.6141 19.013 23.2297 19.1022ZM28.3953 20.8433C28.2875 20.9888 27.4297 22.0916 25.536 22.866C25.6531 23.11 25.7703 23.3587 25.8781 23.6075C25.9156 23.6966 25.9531 23.7858 25.9906 23.8703C27.6969 23.6544 29.3891 24.0017 29.5578 24.0345C29.5438 22.8284 29.1125 21.7162 28.3953 20.8433Z" fill="#151515"/>
</svg>
