<svg width="25" height="25" viewBox="0 0 25 25" fill="none" xmlns="http://www.w3.org/2000/svg">
<rect width="24" height="24" transform="translate(0.429688 0.0791016)" fill="#F5F8FF"/>
<path fill-rule="evenodd" clip-rule="evenodd" d="M9.77353 18.0059C10.6602 18.0598 11.5458 18.081 12.4297 18.079C13.3135 18.081 14.1992 18.0598 15.0859 18.0059C15.8326 17.9605 16.541 17.7132 17.1316 17.2315C17.7005 16.7676 18.0574 16.1462 18.235 15.4501C18.3992 14.8071 18.408 14.1607 18.416 13.5768L18.4162 13.5653C18.4229 13.0715 18.4285 12.5761 18.4297 12.0802V12.0791V12.078C18.4285 11.5821 18.4229 11.0867 18.4162 10.5929L18.416 10.5814C18.408 9.99751 18.3991 9.35113 18.235 8.70804C18.0574 8.01195 17.7005 7.3906 17.1316 6.9267C16.541 6.44504 15.8326 6.19774 15.0859 6.15234C14.1992 6.09842 13.3135 6.07717 12.4297 6.07924C11.5458 6.07717 10.6602 6.09842 9.77353 6.15234C9.02682 6.19774 8.31841 6.44504 7.72774 6.9267C7.15884 7.3906 6.80195 8.01196 6.62432 8.70803C6.46019 9.35123 6.45136 9.99771 6.44339 10.5816L6.44324 10.5929C6.43648 11.0867 6.43085 11.5821 6.42969 12.078V12.0791V12.0802C6.43085 12.5761 6.43648 13.0715 6.44324 13.5653L6.44339 13.5766C6.45136 14.1605 6.46019 14.807 6.62432 15.4502C6.80195 16.1462 7.15884 16.7676 7.72774 17.2315C8.31841 17.7132 9.02682 17.9605 9.77353 18.0059ZM12.4286 17.1415C11.5607 17.1435 10.6947 17.1227 9.83044 17.0701C9.25673 17.0352 8.74175 16.8487 8.32025 16.505C7.92864 16.1856 7.66817 15.749 7.53275 15.2184C7.39943 14.6959 7.38893 14.1558 7.38068 13.5525C7.37395 13.0602 7.36838 12.5693 7.36723 12.0791C7.36838 11.5889 7.37395 11.098 7.38068 10.6057C7.38893 10.0024 7.39943 9.46231 7.53275 8.93983C7.66817 8.40918 7.92864 7.97258 8.32025 7.65325C8.74174 7.30954 9.25673 7.123 9.83044 7.08811C10.6947 7.03555 11.5607 7.01469 12.4286 7.01674H12.4297H12.4308C13.2986 7.01469 14.1647 7.03555 15.0289 7.08811C15.6027 7.123 16.1176 7.30953 16.5391 7.65324C16.9307 7.97257 17.1912 8.40918 17.3266 8.93982C17.4599 9.4623 17.4704 10.0024 17.4787 10.6057C17.4854 11.098 17.491 11.5888 17.4922 12.0791C17.491 12.5694 17.4854 13.0602 17.4787 13.5525C17.4704 14.1558 17.4599 14.6959 17.3266 15.2184C17.1912 15.749 16.9307 16.1856 16.5391 16.505C16.1176 16.8487 15.6027 17.0352 15.0289 17.0701C14.1647 17.1227 13.2986 17.1435 12.4308 17.1415H12.4297H12.4286Z" fill="#151515"/>
<path fill-rule="evenodd" clip-rule="evenodd" d="M9.51538 12.0791C9.51538 13.6886 10.8202 14.9934 12.4297 14.9934C14.0392 14.9934 15.344 13.6886 15.344 12.0791C15.344 10.4696 14.0392 9.16479 12.4297 9.16479C10.8202 9.16479 9.51538 10.4696 9.51538 12.0791ZM12.4297 14.0608C11.3352 14.0608 10.448 13.1736 10.448 12.0791C10.448 10.9846 11.3352 10.0974 12.4297 10.0974C13.5242 10.0974 14.4114 10.9846 14.4114 12.0791C14.4114 13.1736 13.5242 14.0608 12.4297 14.0608Z" fill="#151515"/>
<path d="M16.3726 8.82194C16.3726 9.20064 16.0656 9.50766 15.6869 9.50766C15.3082 9.50766 15.0012 9.20064 15.0012 8.82194C15.0012 8.44325 15.3082 8.13623 15.6869 8.13623C16.0656 8.13623 16.3726 8.44325 16.3726 8.82194Z" fill="#151515"/>
</svg>
