<svg width="37" height="37" viewBox="0 0 37 37" fill="none" xmlns="http://www.w3.org/2000/svg">
<path d="M2.67472 34.328L14.1612 22.8415M28.6258 17.7335L25.1875 28.0486C25.1326 28.214 25.0386 28.3637 24.9136 28.4849C24.7885 28.6062 24.6361 28.6956 24.4691 28.7453L3.39127 35.0102C3.20138 35.0666 2.99965 35.0698 2.80805 35.0196C2.61644 34.9693 2.4423 34.8674 2.30458 34.725C2.16685 34.5826 2.07081 34.4052 2.02692 34.212C1.98303 34.0189 1.99296 33.8174 2.05563 33.6294L8.89988 13.1003C8.94893 12.9529 9.02912 12.8178 9.13501 12.7041C9.24089 12.5904 9.37 12.5009 9.51355 12.4415L19.2366 8.43821C19.4343 8.35657 19.6517 8.33529 19.8615 8.37704C20.0712 8.4188 20.2639 8.52173 20.4153 8.67285L28.3641 16.6253C28.5063 16.7675 28.6062 16.9465 28.6524 17.1423C28.6986 17.338 28.6894 17.5427 28.6258 17.7335Z" stroke="white" stroke-width="2.5" stroke-linecap="round" stroke-linejoin="round"/>
<path d="M2.67472 34.328L14.1612 22.8415M28.6258 17.7335L25.1875 28.0486C25.1326 28.214 25.0386 28.3637 24.9136 28.4849C24.7885 28.6062 24.6361 28.6956 24.4691 28.7453L3.39127 35.0102C3.20138 35.0666 2.99965 35.0698 2.80805 35.0196C2.61644 34.9693 2.4423 34.8674 2.30458 34.725C2.16685 34.5826 2.07081 34.4052 2.02692 34.212C1.98303 34.0189 1.99296 33.8174 2.05563 33.6294L8.89988 13.1003C8.94893 12.9529 9.02912 12.8178 9.13501 12.7041C9.24089 12.5904 9.37 12.5009 9.51355 12.4415L19.2366 8.43821C19.4343 8.35657 19.6517 8.33529 19.8615 8.37704C20.0712 8.4188 20.2639 8.52173 20.4153 8.67285L28.3641 16.6253C28.5063 16.7675 28.6062 16.9465 28.6524 17.1423C28.6986 17.338 28.6894 17.5427 28.6258 17.7335Z" stroke="url(#paint0_linear_4097_2)" stroke-width="2.5" stroke-linecap="round" stroke-linejoin="round"/>
<path d="M28.8388 17.0983L33.9431 11.9922C34.6198 11.3152 35 10.3972 35 9.44C35 8.48281 34.6198 7.56479 33.9431 6.88785L30.1166 3.05781C29.7814 2.72245 29.3834 2.45643 28.9453 2.27492C28.5073 2.09342 28.0378 2 27.5636 2C27.0894 2 26.6199 2.09342 26.1818 2.27492C25.7438 2.45643 25.3458 2.72245 25.0105 3.05781L19.9062 8.16393M17.9894 19.0115C17.7379 18.7601 17.4394 18.5607 17.1108 18.4248C16.7823 18.2888 16.4302 18.2188 16.0746 18.2189C15.7191 18.219 15.367 18.2891 15.0385 18.4252C14.7101 18.5614 14.4116 18.7609 14.1603 19.0124C13.9089 19.2639 13.7095 19.5624 13.5735 19.8909C13.4375 20.2195 13.3676 20.5716 13.3677 20.9271C13.3678 21.2827 13.4379 21.6348 13.574 21.9632C13.7102 22.2917 13.9097 22.5902 14.1612 22.8415C14.6691 23.3492 15.3578 23.6343 16.0759 23.6341C16.794 23.6339 17.4826 23.3485 17.9903 22.8406C18.498 22.3327 18.7831 21.644 18.7829 20.9259C18.7827 20.2078 18.4973 19.5191 17.9894 19.0115Z" stroke="white" stroke-width="2.5" stroke-linecap="round" stroke-linejoin="round"/>
<path d="M28.8388 17.0983L33.9431 11.9922C34.6198 11.3152 35 10.3972 35 9.44C35 8.48281 34.6198 7.56479 33.9431 6.88785L30.1166 3.05781C29.7814 2.72245 29.3834 2.45643 28.9453 2.27492C28.5073 2.09342 28.0378 2 27.5636 2C27.0894 2 26.6199 2.09342 26.1818 2.27492C25.7438 2.45643 25.3458 2.72245 25.0105 3.05781L19.9062 8.16393M17.9894 19.0115C17.7379 18.7601 17.4394 18.5607 17.1108 18.4248C16.7823 18.2888 16.4302 18.2188 16.0746 18.2189C15.7191 18.219 15.367 18.2891 15.0385 18.4252C14.7101 18.5614 14.4116 18.7609 14.1603 19.0124C13.9089 19.2639 13.7095 19.5624 13.5735 19.8909C13.4375 20.2195 13.3676 20.5716 13.3677 20.9271C13.3678 21.2827 13.4379 21.6348 13.574 21.9632C13.7102 22.2917 13.9097 22.5902 14.1612 22.8415C14.6691 23.3492 15.3578 23.6343 16.0759 23.6341C16.794 23.6339 17.4826 23.3485 17.9903 22.8406C18.498 22.3327 18.7831 21.644 18.7829 20.9259C18.7827 20.2078 18.4973 19.5191 17.9894 19.0115Z" stroke="url(#paint1_linear_4097_2)" stroke-width="2.5" stroke-linecap="round" stroke-linejoin="round"/>
<defs>
<linearGradient id="paint0_linear_4097_2" x1="33.5325" y1="34.6505" x2="1.57858" y2="7.97222" gradientUnits="userSpaceOnUse">
<stop stop-color="#9BF8F4"/>
<stop offset="1" stop-color="#6F7BF7"/>
</linearGradient>
<linearGradient id="paint1_linear_4097_2" x1="38.9331" y1="23.3063" x2="13.0381" y2="1.67434" gradientUnits="userSpaceOnUse">
<stop stop-color="#9BF8F4"/>
<stop offset="1" stop-color="#6F7BF7"/>
</linearGradient>
</defs>
</svg>
