<svg width="36" height="36" viewBox="0 0 36 36" fill="none" xmlns="http://www.w3.org/2000/svg">
<path d="M30.25 0.5H5.75C4.35761 0.5 3.02226 1.05312 2.03769 2.03769C1.05312 3.02226 0.5 4.35761 0.5 5.75V30.25C0.5 31.6424 1.05312 32.9777 2.03769 33.9623C3.02226 34.9469 4.35761 35.5 5.75 35.5H30.25C31.6424 35.5 32.9777 34.9469 33.9623 33.9623C34.9469 32.9777 35.5 31.6424 35.5 30.25V5.75C35.5 4.35761 34.9469 3.02226 33.9623 2.03769C32.9777 1.05312 31.6424 0.5 30.25 0.5ZM14.5 4H21.5V9.4775L18.9625 7.7275C18.6768 7.53933 18.3421 7.43904 18 7.43904C17.6579 7.43904 17.3232 7.53933 17.0375 7.7275L14.5 9.4775V4ZM32 30.25C32 30.7141 31.8156 31.1593 31.4874 31.4874C31.1593 31.8156 30.7141 32 30.25 32H5.75C5.28587 32 4.84075 31.8156 4.51256 31.4874C4.18437 31.1593 4 30.7141 4 30.25V5.75C4 5.28587 4.18437 4.84075 4.51256 4.51256C4.84075 4.18437 5.28587 4 5.75 4H11V12.75C11.0008 13.0666 11.0876 13.377 11.2509 13.6482C11.4142 13.9194 11.6481 14.1412 11.9275 14.29C12.2012 14.4305 12.507 14.4964 12.8142 14.481C13.1215 14.4657 13.4192 14.3696 13.6775 14.2025L18 11.35L22.2875 14.2025C22.5507 14.3758 22.8558 14.4749 23.1706 14.4892C23.4855 14.5035 23.7983 14.4325 24.0761 14.2837C24.354 14.1349 24.5865 13.9139 24.7491 13.644C24.9117 13.374 24.9984 13.0651 25 12.75V4H30.25C30.7141 4 31.1593 4.18437 31.4874 4.51256C31.8156 4.84075 32 5.28587 32 5.75V30.25Z" fill="white"/>
<path d="M30.25 0.5H5.75C4.35761 0.5 3.02226 1.05312 2.03769 2.03769C1.05312 3.02226 0.5 4.35761 0.5 5.75V30.25C0.5 31.6424 1.05312 32.9777 2.03769 33.9623C3.02226 34.9469 4.35761 35.5 5.75 35.5H30.25C31.6424 35.5 32.9777 34.9469 33.9623 33.9623C34.9469 32.9777 35.5 31.6424 35.5 30.25V5.75C35.5 4.35761 34.9469 3.02226 33.9623 2.03769C32.9777 1.05312 31.6424 0.5 30.25 0.5ZM14.5 4H21.5V9.4775L18.9625 7.7275C18.6768 7.53933 18.3421 7.43904 18 7.43904C17.6579 7.43904 17.3232 7.53933 17.0375 7.7275L14.5 9.4775V4ZM32 30.25C32 30.7141 31.8156 31.1593 31.4874 31.4874C31.1593 31.8156 30.7141 32 30.25 32H5.75C5.28587 32 4.84075 31.8156 4.51256 31.4874C4.18437 31.1593 4 30.7141 4 30.25V5.75C4 5.28587 4.18437 4.84075 4.51256 4.51256C4.84075 4.18437 5.28587 4 5.75 4H11V12.75C11.0008 13.0666 11.0876 13.377 11.2509 13.6482C11.4142 13.9194 11.6481 14.1412 11.9275 14.29C12.2012 14.4305 12.507 14.4964 12.8142 14.481C13.1215 14.4657 13.4192 14.3696 13.6775 14.2025L18 11.35L22.2875 14.2025C22.5507 14.3758 22.8558 14.4749 23.1706 14.4892C23.4855 14.5035 23.7983 14.4325 24.0761 14.2837C24.354 14.1349 24.5865 13.9139 24.7491 13.644C24.9117 13.374 24.9984 13.0651 25 12.75V4H30.25C30.7141 4 31.1593 4.18437 31.4874 4.51256C31.8156 4.84075 32 5.28587 32 5.75V30.25Z" fill="url(#paint0_linear_4032_630)"/>
<defs>
<linearGradient id="paint0_linear_4032_630" x1="41.8636" y1="34.9697" x2="-0.0303043" y2="-0.0303034" gradientUnits="userSpaceOnUse">
<stop stop-color="#9BF8F4"/>
<stop offset="1" stop-color="#6F7BF7"/>
</linearGradient>
</defs>
</svg>
