<svg width="38" height="38" viewBox="0 0 38 38" fill="none" xmlns="http://www.w3.org/2000/svg">
<path d="M19 37.3333C16.5925 37.3333 14.2085 36.8591 11.9842 35.9378C9.75985 35.0164 7.7388 33.666 6.0364 31.9636C2.59823 28.5254 0.666687 23.8623 0.666687 19C0.666687 14.1377 2.59823 9.4745 6.0364 6.03633C9.47456 2.59817 14.1377 0.666626 19 0.666626C29.0834 0.666626 37.3334 7.99996 37.3334 17.1666C37.3334 20.084 36.1744 22.8819 34.1115 24.9448C32.0486 27.0077 29.2507 28.1666 26.3334 28.1666H23.0334C22.4834 28.1666 22.1167 28.5333 22.1167 29.0833C22.1167 29.2666 22.3 29.45 22.3 29.6333C23.0334 30.55 23.4 31.65 23.4 32.75C23.5834 35.3166 21.5667 37.3333 19 37.3333ZM19 4.33329C15.1102 4.33329 11.3797 5.87853 8.62912 8.62906C5.87859 11.3796 4.33335 15.1101 4.33335 19C4.33335 22.8898 5.87859 26.6203 8.62912 29.3709C11.3797 32.1214 15.1102 33.6666 19 33.6666C19.55 33.6666 19.9167 33.3 19.9167 32.75C19.9167 32.3833 19.7334 32.2 19.7334 32.0166C19 31.1 18.6334 30.1833 18.6334 29.0833C18.6334 26.5166 20.65 24.5 23.2167 24.5H26.3334C28.2783 24.5 30.1435 23.7273 31.5188 22.3521C32.8941 20.9768 33.6667 19.1115 33.6667 17.1666C33.6667 10.0166 27.0667 4.33329 19 4.33329ZM8.91669 15.3333C10.3834 15.3333 11.6667 16.6166 11.6667 18.0833C11.6667 19.55 10.3834 20.8333 8.91669 20.8333C7.45002 20.8333 6.16669 19.55 6.16669 18.0833C6.16669 16.6166 7.45002 15.3333 8.91669 15.3333ZM14.4167 7.99996C15.8834 7.99996 17.1667 9.28329 17.1667 10.75C17.1667 12.2166 15.8834 13.5 14.4167 13.5C12.95 13.5 11.6667 12.2166 11.6667 10.75C11.6667 9.28329 12.95 7.99996 14.4167 7.99996ZM23.5834 7.99996C25.05 7.99996 26.3334 9.28329 26.3334 10.75C26.3334 12.2166 25.05 13.5 23.5834 13.5C22.1167 13.5 20.8334 12.2166 20.8334 10.75C20.8334 9.28329 22.1167 7.99996 23.5834 7.99996ZM29.0834 15.3333C30.55 15.3333 31.8334 16.6166 31.8334 18.0833C31.8334 19.55 30.55 20.8333 29.0834 20.8333C27.6167 20.8333 26.3334 19.55 26.3334 18.0833C26.3334 16.6166 27.6167 15.3333 29.0834 15.3333Z" fill="white"/>
<path d="M19 37.3333C16.5925 37.3333 14.2085 36.8591 11.9842 35.9378C9.75985 35.0164 7.7388 33.666 6.0364 31.9636C2.59823 28.5254 0.666687 23.8623 0.666687 19C0.666687 14.1377 2.59823 9.4745 6.0364 6.03633C9.47456 2.59817 14.1377 0.666626 19 0.666626C29.0834 0.666626 37.3334 7.99996 37.3334 17.1666C37.3334 20.084 36.1744 22.8819 34.1115 24.9448C32.0486 27.0077 29.2507 28.1666 26.3334 28.1666H23.0334C22.4834 28.1666 22.1167 28.5333 22.1167 29.0833C22.1167 29.2666 22.3 29.45 22.3 29.6333C23.0334 30.55 23.4 31.65 23.4 32.75C23.5834 35.3166 21.5667 37.3333 19 37.3333ZM19 4.33329C15.1102 4.33329 11.3797 5.87853 8.62912 8.62906C5.87859 11.3796 4.33335 15.1101 4.33335 19C4.33335 22.8898 5.87859 26.6203 8.62912 29.3709C11.3797 32.1214 15.1102 33.6666 19 33.6666C19.55 33.6666 19.9167 33.3 19.9167 32.75C19.9167 32.3833 19.7334 32.2 19.7334 32.0166C19 31.1 18.6334 30.1833 18.6334 29.0833C18.6334 26.5166 20.65 24.5 23.2167 24.5H26.3334C28.2783 24.5 30.1435 23.7273 31.5188 22.3521C32.8941 20.9768 33.6667 19.1115 33.6667 17.1666C33.6667 10.0166 27.0667 4.33329 19 4.33329ZM8.91669 15.3333C10.3834 15.3333 11.6667 16.6166 11.6667 18.0833C11.6667 19.55 10.3834 20.8333 8.91669 20.8333C7.45002 20.8333 6.16669 19.55 6.16669 18.0833C6.16669 16.6166 7.45002 15.3333 8.91669 15.3333ZM14.4167 7.99996C15.8834 7.99996 17.1667 9.28329 17.1667 10.75C17.1667 12.2166 15.8834 13.5 14.4167 13.5C12.95 13.5 11.6667 12.2166 11.6667 10.75C11.6667 9.28329 12.95 7.99996 14.4167 7.99996ZM23.5834 7.99996C25.05 7.99996 26.3334 9.28329 26.3334 10.75C26.3334 12.2166 25.05 13.5 23.5834 13.5C22.1167 13.5 20.8334 12.2166 20.8334 10.75C20.8334 9.28329 22.1167 7.99996 23.5834 7.99996ZM29.0834 15.3333C30.55 15.3333 31.8334 16.6166 31.8334 18.0833C31.8334 19.55 30.55 20.8333 29.0834 20.8333C27.6167 20.8333 26.3334 19.55 26.3334 18.0833C26.3334 16.6166 27.6167 15.3333 29.0834 15.3333Z" fill="url(#paint0_linear_4032_656)"/>
<defs>
<linearGradient id="paint0_linear_4032_656" x1="44" y1="36.7777" x2="0.11113" y2="0.11107" gradientUnits="userSpaceOnUse">
<stop stop-color="#9BF8F4"/>
<stop offset="1" stop-color="#6F7BF7"/>
</linearGradient>
</defs>
</svg>
