<svg width="36" height="36" viewBox="0 0 36 36" fill="none" xmlns="http://www.w3.org/2000/svg">
<path d="M18 2.60002C17.1248 2.60002 16.2854 2.9477 15.6666 3.56657C15.0477 4.18544 14.7 5.02481 14.7 5.90002C14.7 6.77524 15.0477 7.61461 15.6666 8.23348C16.2854 8.85235 17.1248 9.20002 18 9.20002C18.8752 9.20002 19.7146 8.85235 20.3335 8.23348C20.9523 7.61461 21.3 6.77524 21.3 5.90002C21.3 5.02481 20.9523 4.18544 20.3335 3.56657C19.7146 2.9477 18.8752 2.60002 18 2.60002ZM12.5 5.90002C12.5 4.44133 13.0795 3.04239 14.1109 2.01094C15.1424 0.979487 16.5413 0.400024 18 0.400024C19.4587 0.400024 20.8577 0.979487 21.8891 2.01094C22.9206 3.04239 23.5 4.44133 23.5 5.90002C23.5 7.35872 22.9206 8.75766 21.8891 9.78911C20.8577 10.8206 19.4587 11.4 18 11.4C16.5413 11.4 15.1424 10.8206 14.1109 9.78911C13.0795 8.75766 12.5 7.35872 12.5 5.90002ZM30.1 4.80002C29.5165 4.80002 28.957 5.03181 28.5444 5.44439C28.1318 5.85697 27.9 6.41655 27.9 7.00002C27.9 7.5835 28.1318 8.14308 28.5444 8.55566C28.957 8.96824 29.5165 9.20002 30.1 9.20002C30.6835 9.20002 31.2431 8.96824 31.6557 8.55566C32.0682 8.14308 32.3 7.5835 32.3 7.00002C32.3 6.41655 32.0682 5.85697 31.6557 5.44439C31.2431 5.03181 30.6835 4.80002 30.1 4.80002ZM25.7 7.00002C25.7 5.83307 26.1636 4.71391 26.9888 3.88875C27.8139 3.06359 28.9331 2.60002 30.1 2.60002C31.267 2.60002 32.3861 3.06359 33.2113 3.88875C34.0365 4.71391 34.5 5.83307 34.5 7.00002C34.5 8.16698 34.0365 9.28613 33.2113 10.1113C32.3861 10.9365 31.267 11.4 30.1 11.4C28.9331 11.4 27.8139 10.9365 26.9888 10.1113C26.1636 9.28613 25.7 8.16698 25.7 7.00002ZM3.70002 7.00002C3.70002 6.41655 3.93181 5.85697 4.34439 5.44439C4.75697 5.03181 5.31655 4.80002 5.90002 4.80002C6.4835 4.80002 7.04308 5.03181 7.45566 5.44439C7.86824 5.85697 8.10002 6.41655 8.10002 7.00002C8.10002 7.5835 7.86824 8.14308 7.45566 8.55566C7.04308 8.96824 6.4835 9.20002 5.90002 9.20002C5.31655 9.20002 4.75697 8.96824 4.34439 8.55566C3.93181 8.14308 3.70002 7.5835 3.70002 7.00002ZM5.90002 2.60002C4.73307 2.60002 3.61391 3.06359 2.78875 3.88875C1.96359 4.71391 1.50002 5.83307 1.50002 7.00002C1.50002 8.16698 1.96359 9.28613 2.78875 10.1113C3.61391 10.9365 4.73307 11.4 5.90002 11.4C7.06698 11.4 8.18613 10.9365 9.01129 10.1113C9.83645 9.28613 10.3 8.16698 10.3 7.00002C10.3 5.83307 9.83645 4.71391 9.01129 3.88875C8.18613 3.06359 7.06698 2.60002 5.90002 2.60002ZM7.22002 28.9956L7.00002 29C5.83307 29 4.71391 28.5365 3.88875 27.7113C3.06359 26.8861 2.60002 25.767 2.60002 24.6V16.35C2.60002 16.2042 2.65797 16.0643 2.76112 15.9611C2.86426 15.858 3.00416 15.8 3.15002 15.8H7.03082C7.11882 14.9926 7.40483 14.2424 7.83383 13.6H3.15002C1.63202 13.6 0.400024 14.832 0.400024 16.35V24.6C0.399922 25.5419 0.601409 26.4729 0.990948 27.3304C1.38049 28.1879 1.94905 28.9522 2.65845 29.5717C3.36784 30.1913 4.20162 30.6519 5.10377 30.9225C6.00592 31.1931 6.95554 31.2675 7.88882 31.1406C7.59326 30.4503 7.36916 29.7316 7.22002 28.9956ZM28.1112 31.1406C28.4016 31.1802 28.6979 31.2 29 31.2C30.7505 31.2 32.4292 30.5047 33.6669 29.2669C34.9047 28.0292 35.6 26.3505 35.6 24.6V16.35C35.6 14.832 34.368 13.6 32.85 13.6H28.1662C28.5974 14.2424 28.8812 14.9926 28.9692 15.8H32.85C32.9959 15.8 33.1358 15.858 33.2389 15.9611C33.3421 16.0643 33.4 16.2042 33.4 16.35V24.6C33.4002 25.1965 33.2791 25.7867 33.044 26.3349C32.809 26.8831 32.465 27.3777 32.0329 27.7889C31.6008 28.2 31.0896 28.5189 30.5304 28.7264C29.9712 28.9338 29.3757 29.0254 28.78 28.9956C28.6309 29.7316 28.4068 30.4503 28.1112 31.1406ZM11.95 13.6C10.432 13.6 9.20002 14.832 9.20002 16.35V26.8C9.20002 29.1339 10.1272 31.3722 11.7775 33.0226C13.4278 34.6729 15.6661 35.6 18 35.6C20.3339 35.6 22.5722 34.6729 24.2226 33.0226C25.8729 31.3722 26.8 29.1339 26.8 26.8V16.35C26.8 14.832 25.568 13.6 24.05 13.6H11.95ZM11.4 16.35C11.4 16.2042 11.458 16.0643 11.5611 15.9611C11.6643 15.858 11.8042 15.8 11.95 15.8H24.05C24.1959 15.8 24.3358 15.858 24.4389 15.9611C24.5421 16.0643 24.6 16.2042 24.6 16.35V26.8C24.6 28.5505 23.9047 30.2292 22.6669 31.4669C21.4292 32.7047 19.7505 33.4 18 33.4C16.2496 33.4 14.5709 32.7047 13.3331 31.4669C12.0954 30.2292 11.4 28.5505 11.4 26.8V16.35Z" fill="white"/>
<path d="M18 2.60002C17.1248 2.60002 16.2854 2.9477 15.6666 3.56657C15.0477 4.18544 14.7 5.02481 14.7 5.90002C14.7 6.77524 15.0477 7.61461 15.6666 8.23348C16.2854 8.85235 17.1248 9.20002 18 9.20002C18.8752 9.20002 19.7146 8.85235 20.3335 8.23348C20.9523 7.61461 21.3 6.77524 21.3 5.90002C21.3 5.02481 20.9523 4.18544 20.3335 3.56657C19.7146 2.9477 18.8752 2.60002 18 2.60002ZM12.5 5.90002C12.5 4.44133 13.0795 3.04239 14.1109 2.01094C15.1424 0.979487 16.5413 0.400024 18 0.400024C19.4587 0.400024 20.8577 0.979487 21.8891 2.01094C22.9206 3.04239 23.5 4.44133 23.5 5.90002C23.5 7.35872 22.9206 8.75766 21.8891 9.78911C20.8577 10.8206 19.4587 11.4 18 11.4C16.5413 11.4 15.1424 10.8206 14.1109 9.78911C13.0795 8.75766 12.5 7.35872 12.5 5.90002ZM30.1 4.80002C29.5165 4.80002 28.957 5.03181 28.5444 5.44439C28.1318 5.85697 27.9 6.41655 27.9 7.00002C27.9 7.5835 28.1318 8.14308 28.5444 8.55566C28.957 8.96824 29.5165 9.20002 30.1 9.20002C30.6835 9.20002 31.2431 8.96824 31.6557 8.55566C32.0682 8.14308 32.3 7.5835 32.3 7.00002C32.3 6.41655 32.0682 5.85697 31.6557 5.44439C31.2431 5.03181 30.6835 4.80002 30.1 4.80002ZM25.7 7.00002C25.7 5.83307 26.1636 4.71391 26.9888 3.88875C27.8139 3.06359 28.9331 2.60002 30.1 2.60002C31.267 2.60002 32.3861 3.06359 33.2113 3.88875C34.0365 4.71391 34.5 5.83307 34.5 7.00002C34.5 8.16698 34.0365 9.28613 33.2113 10.1113C32.3861 10.9365 31.267 11.4 30.1 11.4C28.9331 11.4 27.8139 10.9365 26.9888 10.1113C26.1636 9.28613 25.7 8.16698 25.7 7.00002ZM3.70002 7.00002C3.70002 6.41655 3.93181 5.85697 4.34439 5.44439C4.75697 5.03181 5.31655 4.80002 5.90002 4.80002C6.4835 4.80002 7.04308 5.03181 7.45566 5.44439C7.86824 5.85697 8.10002 6.41655 8.10002 7.00002C8.10002 7.5835 7.86824 8.14308 7.45566 8.55566C7.04308 8.96824 6.4835 9.20002 5.90002 9.20002C5.31655 9.20002 4.75697 8.96824 4.34439 8.55566C3.93181 8.14308 3.70002 7.5835 3.70002 7.00002ZM5.90002 2.60002C4.73307 2.60002 3.61391 3.06359 2.78875 3.88875C1.96359 4.71391 1.50002 5.83307 1.50002 7.00002C1.50002 8.16698 1.96359 9.28613 2.78875 10.1113C3.61391 10.9365 4.73307 11.4 5.90002 11.4C7.06698 11.4 8.18613 10.9365 9.01129 10.1113C9.83645 9.28613 10.3 8.16698 10.3 7.00002C10.3 5.83307 9.83645 4.71391 9.01129 3.88875C8.18613 3.06359 7.06698 2.60002 5.90002 2.60002ZM7.22002 28.9956L7.00002 29C5.83307 29 4.71391 28.5365 3.88875 27.7113C3.06359 26.8861 2.60002 25.767 2.60002 24.6V16.35C2.60002 16.2042 2.65797 16.0643 2.76112 15.9611C2.86426 15.858 3.00416 15.8 3.15002 15.8H7.03082C7.11882 14.9926 7.40483 14.2424 7.83383 13.6H3.15002C1.63202 13.6 0.400024 14.832 0.400024 16.35V24.6C0.399922 25.5419 0.601409 26.4729 0.990948 27.3304C1.38049 28.1879 1.94905 28.9522 2.65845 29.5717C3.36784 30.1913 4.20162 30.6519 5.10377 30.9225C6.00592 31.1931 6.95554 31.2675 7.88882 31.1406C7.59326 30.4503 7.36916 29.7316 7.22002 28.9956ZM28.1112 31.1406C28.4016 31.1802 28.6979 31.2 29 31.2C30.7505 31.2 32.4292 30.5047 33.6669 29.2669C34.9047 28.0292 35.6 26.3505 35.6 24.6V16.35C35.6 14.832 34.368 13.6 32.85 13.6H28.1662C28.5974 14.2424 28.8812 14.9926 28.9692 15.8H32.85C32.9959 15.8 33.1358 15.858 33.2389 15.9611C33.3421 16.0643 33.4 16.2042 33.4 16.35V24.6C33.4002 25.1965 33.2791 25.7867 33.044 26.3349C32.809 26.8831 32.465 27.3777 32.0329 27.7889C31.6008 28.2 31.0896 28.5189 30.5304 28.7264C29.9712 28.9338 29.3757 29.0254 28.78 28.9956C28.6309 29.7316 28.4068 30.4503 28.1112 31.1406ZM11.95 13.6C10.432 13.6 9.20002 14.832 9.20002 16.35V26.8C9.20002 29.1339 10.1272 31.3722 11.7775 33.0226C13.4278 34.6729 15.6661 35.6 18 35.6C20.3339 35.6 22.5722 34.6729 24.2226 33.0226C25.8729 31.3722 26.8 29.1339 26.8 26.8V16.35C26.8 14.832 25.568 13.6 24.05 13.6H11.95ZM11.4 16.35C11.4 16.2042 11.458 16.0643 11.5611 15.9611C11.6643 15.858 11.8042 15.8 11.95 15.8H24.05C24.1959 15.8 24.3358 15.858 24.4389 15.9611C24.5421 16.0643 24.6 16.2042 24.6 16.35V26.8C24.6 28.5505 23.9047 30.2292 22.6669 31.4669C21.4292 32.7047 19.7505 33.4 18 33.4C16.2496 33.4 14.5709 32.7047 13.3331 31.4669C12.0954 30.2292 11.4 28.5505 11.4 26.8V16.35Z" fill="url(#paint0_linear_4032_622)"/>
<defs>
<linearGradient id="paint0_linear_4032_622" x1="42" y1="35.0667" x2="-0.13331" y2="-0.133309" gradientUnits="userSpaceOnUse">
<stop stop-color="#9BF8F4"/>
<stop offset="1" stop-color="#6F7BF7"/>
</linearGradient>
</defs>
</svg>
