<svg width="36" height="38" viewBox="0 0 36 38" fill="none" xmlns="http://www.w3.org/2000/svg">
<path d="M34.3636 6.73149H29.4556V1.68326C29.4556 0.752914 28.7221 0 27.8191 0H8.18259C7.27809 0 6.54609 0.754457 6.54609 1.68326V6.73149H1.63809C0.733587 6.73149 0.00158691 7.48594 0.00158691 8.41474V28.6123C0.00158691 29.5426 0.735087 30.2955 1.63809 30.2955H6.54609V35.3453C6.54609 36.2757 7.27959 37.0286 8.18259 37.0286H27.8191C28.7236 37.0286 29.4556 36.2741 29.4556 35.3453V30.2955H34.3651C35.2696 30.2955 36.0016 29.5411 36.0016 28.6123V8.41474C36.0016 7.4844 35.2666 6.73149 34.3636 6.73149ZM9.81909 3.36651H26.1811V6.73303H9.81909V3.36651ZM26.1811 33.6621H9.81909V23.5625H26.1811V33.6621ZM32.7256 26.9306H29.4541V21.8808C29.4541 20.9505 28.7206 20.1975 27.8176 20.1975H8.18109C7.27659 20.1975 6.54459 20.952 6.54459 21.8808V26.9306H3.27159V10.0995H32.7271L32.7256 26.9306Z" fill="white"/>
<path d="M34.3636 6.73149H29.4556V1.68326C29.4556 0.752914 28.7221 0 27.8191 0H8.18259C7.27809 0 6.54609 0.754457 6.54609 1.68326V6.73149H1.63809C0.733587 6.73149 0.00158691 7.48594 0.00158691 8.41474V28.6123C0.00158691 29.5426 0.735087 30.2955 1.63809 30.2955H6.54609V35.3453C6.54609 36.2757 7.27959 37.0286 8.18259 37.0286H27.8191C28.7236 37.0286 29.4556 36.2741 29.4556 35.3453V30.2955H34.3651C35.2696 30.2955 36.0016 29.5411 36.0016 28.6123V8.41474C36.0016 7.4844 35.2666 6.73149 34.3636 6.73149ZM9.81909 3.36651H26.1811V6.73303H9.81909V3.36651ZM26.1811 33.6621H9.81909V23.5625H26.1811V33.6621ZM32.7256 26.9306H29.4541V21.8808C29.4541 20.9505 28.7206 20.1975 27.8176 20.1975H8.18109C7.27659 20.1975 6.54459 20.952 6.54459 21.8808V26.9306H3.27159V10.0995H32.7271L32.7256 26.9306Z" fill="url(#paint0_linear_4090_4)"/>
<path d="M21.273 26.929H14.682C14.248 26.929 13.8318 27.1064 13.5249 27.4221C13.2179 27.7377 13.0455 28.1659 13.0455 28.6123C13.0455 29.0587 13.2179 29.4869 13.5249 29.8025C13.8318 30.1182 14.248 30.2956 14.682 30.2956H14.73H14.727H21.318C21.7521 30.2956 22.1683 30.1182 22.4752 29.8025C22.7821 29.4869 22.9545 29.0587 22.9545 28.6123C22.9545 28.1659 22.7821 27.7377 22.4752 27.4221C22.1683 27.1064 21.7521 26.929 21.318 26.929H21.27H21.273ZM26.661 13.9582C26.3928 14.2336 26.2256 14.5961 26.1881 14.984C26.1505 15.3719 26.2449 15.7612 26.4552 16.0855C26.6654 16.4099 26.9785 16.6492 27.3411 16.7627C27.7037 16.8762 28.0933 16.8568 28.4436 16.708C28.7938 16.5591 29.0831 16.2899 29.262 15.9463C29.4409 15.6026 29.4984 15.2058 29.4248 14.8234C29.3511 14.441 29.1508 14.0967 28.858 13.8492C28.5652 13.6017 28.198 13.4663 27.819 13.4661C27.3852 13.4669 26.9679 13.6445 26.661 13.9598V13.9582Z" fill="white"/>
<path d="M21.273 26.929H14.682C14.248 26.929 13.8318 27.1064 13.5249 27.4221C13.2179 27.7377 13.0455 28.1659 13.0455 28.6123C13.0455 29.0587 13.2179 29.4869 13.5249 29.8025C13.8318 30.1182 14.248 30.2956 14.682 30.2956H14.73H14.727H21.318C21.7521 30.2956 22.1683 30.1182 22.4752 29.8025C22.7821 29.4869 22.9545 29.0587 22.9545 28.6123C22.9545 28.1659 22.7821 27.7377 22.4752 27.4221C22.1683 27.1064 21.7521 26.929 21.318 26.929H21.27H21.273ZM26.661 13.9582C26.3928 14.2336 26.2256 14.5961 26.1881 14.984C26.1505 15.3719 26.2449 15.7612 26.4552 16.0855C26.6654 16.4099 26.9785 16.6492 27.3411 16.7627C27.7037 16.8762 28.0933 16.8568 28.4436 16.708C28.7938 16.5591 29.0831 16.2899 29.262 15.9463C29.4409 15.6026 29.4984 15.2058 29.4248 14.8234C29.3511 14.441 29.1508 14.0967 28.858 13.8492C28.5652 13.6017 28.198 13.4663 27.819 13.4661C27.3852 13.4669 26.9679 13.6445 26.661 13.9598V13.9582Z" fill="url(#paint1_linear_4090_4)"/>
<defs>
<linearGradient id="paint0_linear_4090_4" x1="42.547" y1="36.4675" x2="-1.53661" y2="0.661193" gradientUnits="userSpaceOnUse">
<stop stop-color="#9BF8F4"/>
<stop offset="1" stop-color="#6F7BF7"/>
</linearGradient>
<linearGradient id="paint1_linear_4090_4" x1="32.4397" y1="30.0406" x2="12.3916" y2="13.7085" gradientUnits="userSpaceOnUse">
<stop stop-color="#9BF8F4"/>
<stop offset="1" stop-color="#6F7BF7"/>
</linearGradient>
</defs>
</svg>
