<svg width="38" height="30" viewBox="0 0 38 30" fill="none" xmlns="http://www.w3.org/2000/svg">
<path d="M27.906 2.06L35.9927 5.84875L32.0528 11.7111L28.5975 10.8632L26.74 10.4074V12.32V27.62H10.42V12.32V10.3503L8.52125 10.874L5.73672 11.6419L1.91629 5.92908L10.0969 2.06H13.3642C13.6152 3.32734 14.5584 4.24244 15.4259 4.79345C16.4717 5.4578 17.7876 5.8568 18.958 5.8568C20.1227 5.8568 21.4539 5.4633 22.5166 4.80635C23.3941 4.26395 24.3767 3.34812 24.635 2.06H27.906Z" stroke="white" stroke-width="3"/>
<path d="M27.906 2.06L35.9927 5.84875L32.0528 11.7111L28.5975 10.8632L26.74 10.4074V12.32V27.62H10.42V12.32V10.3503L8.52125 10.874L5.73672 11.6419L1.91629 5.92908L10.0969 2.06H13.3642C13.6152 3.32734 14.5584 4.24244 15.4259 4.79345C16.4717 5.4578 17.7876 5.8568 18.958 5.8568C20.1227 5.8568 21.4539 5.4633 22.5166 4.80635C23.3941 4.26395 24.3767 3.34812 24.635 2.06H27.906Z" stroke="url(#paint0_linear_4032_614)" stroke-width="3"/>
<defs>
<linearGradient id="paint0_linear_4032_614" x1="44.661" y1="28.6873" x2="10.0875" y2="-9.44418" gradientUnits="userSpaceOnUse">
<stop stop-color="#9BF8F4"/>
<stop offset="1" stop-color="#6F7BF7"/>
</linearGradient>
</defs>
</svg>
